<?xml version="1.0" encoding="UTF-8"?>
<svg width="168px" height="50px" viewBox="0 0 168 50" version="1.1" xmlns="http://www.w3.org/2000/svg" xmlns:xlink="http://www.w3.org/1999/xlink">
    <!-- Generator: Sketch 54.1 (76490) - https://sketchapp.com -->
    <title>编组 2</title>
    <desc>Created with Sketch.</desc>
    <g id="页面1" stroke="none" stroke-width="1" fill="none" fill-rule="evenodd">
        <g id="编组-2" transform="translate(0.000000, 0.039062)" fill-rule="nonzero">
            <g id="logo">
                <path d="M47.2863281,24.0225 C48.7147266,21.2426953 48.8682422,18.6437109 47.701875,16.6236328 C46.4929688,14.5297266 43.9981641,13.3385156 40.6771875,13.2694922 C38.2385156,13.2194531 35.4694922,13.7746875 32.6930859,14.8548047 C33.6500391,11.5910156 33.3413672,9 31.7701172,7.42875 C29.881875,5.54050781 26.5085156,5.47570312 22.2713672,7.24617187 C18.3203906,8.89710937 13.9787109,11.9723437 10.0457813,15.9050391 C4.18851563,21.7624219 0.296953125,28.5563672 0.110742188,33.2405859 C0.037265625,33.705 0,34.1694141 0,34.6219922 C0,38.8164844 2.94023437,42.7099219 8.2790625,45.5845312 C13.4186719,48.3521484 20.2297266,49.8761719 27.4575,49.8761719 C34.6852734,49.8761719 41.4963281,48.3521484 46.6359375,45.5845312 C51.9747656,42.7099219 54.915,38.8164844 54.915,34.6219922 C54.9151172,30.5937891 52.2159375,26.8575 47.2863281,24.0225 Z" id="路径" fill="#EA533B"></path>
                <path d="M30.5083594,48.8592187 C23.2805859,48.8592187 16.4695313,47.3351953 11.3299219,44.5675781 C5.99109375,41.6929687 3.05085938,37.7995313 3.05085938,33.6050391 C3.05085938,33.1523438 3.088125,32.6880469 3.16160156,32.22375 C3.3478125,27.5394141 7.239375,20.7455859 13.0967578,14.8882031 C16.9905469,10.9945313 21.2846484,7.9425 25.2038672,6.27984375 C24.2834766,6.49347656 23.3033203,6.81492188 22.2714844,7.24605469 C18.3205078,8.89699219 13.9788281,11.9722266 10.0458984,15.9049219 C4.18851562,21.7625391 0.296953125,28.5564844 0.110742188,33.2407031 C0.037265625,33.705 0,34.1694141 0,34.6219922 C0,38.8164844 2.94023438,42.7099219 8.2790625,45.5845312 C13.4186719,48.3521484 20.2297266,49.8761719 27.4575,49.8761719 C33.1546875,49.8761719 38.5921875,48.9285937 43.1569922,47.1721875 C39.2990625,48.2743359 34.9838672,48.8592187 30.5083594,48.8592187 Z" id="路径" fill="#D93C1C"></path>
                <path d="M42.6785156,31.5271875 C42.3775781,28.0625391 40.0908984,25.0103906 36.2397656,22.9328906 C32.5271484,20.9300391 27.766875,20.0629688 22.835625,20.4912891 C17.9044922,20.9197266 13.3647656,22.5946875 10.0532812,25.2077344 C6.61804687,27.9183984 4.89175781,31.3191797 5.1928125,34.7837109 C5.49386719,38.2483594 7.78054687,41.3005078 11.6317969,43.3780078 C14.7242578,45.0462891 18.5430469,45.9266016 22.5826172,45.9264844 C23.3927344,45.9264844 24.2121094,45.8910938 25.0358203,45.8194922 C29.9669531,45.3912891 34.5065625,43.7162109 37.8180469,41.1031641 C41.2533984,38.3925 42.9794531,34.9917188 42.6785156,31.5271875 Z" id="路径" fill="#FFFFFF"></path>
                <path d="M26.9953125,44.8030078 C26.1716016,44.8746094 25.3522266,44.91 24.5421094,44.91 C20.5025391,44.9101172 16.6836328,44.0298047 13.5912891,42.3615234 C9.74015625,40.2839063 7.45324219,37.2317578 7.15230469,33.7672266 C6.85125,30.3026953 8.57742188,26.9019141 12.0127734,24.19125 C12.6923438,23.6551172 13.4244141,23.1590625 14.2000781,22.7044922 C12.6774609,23.3996484 11.2808203,24.2390625 10.0530469,25.2077344 C6.6178125,27.9183984 4.89152344,31.3191797 5.19257812,34.7837109 C5.49363281,38.2483594 7.7803125,41.3005078 11.6315625,43.3780078 C14.7240234,45.0462891 18.5428125,45.9266016 22.5823828,45.9264844 C23.3925,45.9264844 24.211875,45.8910938 25.0355859,45.8194922 C28.9549219,45.4790625 32.6259375,44.3505469 35.6305078,42.5899219 C33.0461719,43.7698828 30.0985547,44.5334766 26.9953125,44.8030078 Z" id="路径" fill="#E5E5E5"></path>
                <path d="M33.5917969,31.5858984 C32.4776953,26.9518359 27.0820312,24.2607422 21.5639062,25.5871875 C16.0457812,26.91375 12.4630078,31.7633203 13.576875,36.3976172 C14.1255469,38.6796094 15.7045312,40.5568359 18.0233203,41.6833594 C19.4627344,42.3826172 21.0821484,42.7383984 22.7524219,42.7383984 C23.6948437,42.7383984 24.6533203,42.6250781 25.6046484,42.3964453 C31.1228906,41.0697656 34.7058984,36.2203125 33.5917969,31.5858984 Z" id="路径" fill="#333333"></path>
                <circle id="椭圆形" fill="#FFFFFF" cx="20.8474219" cy="36.1473047" r="3.55933594"></circle>
                <g id="编组" transform="translate(39.609375, 0.000000)" fill="#FFA929">
                    <path d="M4.119375,8.68980469 C3.27691406,8.68980469 2.59394531,9.37277344 2.59394531,10.2152344 C2.59394531,11.0576953 3.27691406,11.7406641 4.119375,11.7406641 C7.20351562,11.7406641 9.71261719,14.2497656 9.71261719,17.3339062 C9.71261719,18.1763672 10.3955859,18.8593359 11.2380469,18.8593359 C12.0805078,18.8593359 12.7634766,18.1763672 12.7634766,17.3339062 C12.7633594,12.5675391 8.885625,8.68980469 4.119375,8.68980469 Z" id="路径"></path>
                    <path d="M3.10253906,0.045703125 C2.72039062,0.045703125 2.33332031,0.058359375 1.95210938,0.0834375 C0.831328125,0.157148438 -0.017578125,1.12558594 0.056015625,2.24648438 C0.129726563,3.36726563 1.09898437,4.21570313 2.2190625,4.14257812 C2.51179688,4.12335937 2.80910156,4.11351562 3.10253906,4.11351562 C10.3923047,4.11351562 16.3228125,10.0441406 16.3228125,17.3337891 C16.3228125,18.2251172 16.2338672,19.1155078 16.0583203,19.98 C15.8947266,20.7856641 16.2564844,21.6451172 16.9461328,22.0923047 C17.6480859,22.5474609 18.5997656,22.5126562 19.2698438,22.0132031 C19.666875,21.7173047 19.9464844,21.2741016 20.0449219,20.7891797 C20.274375,19.6587891 20.390625,18.4962891 20.390625,17.3336719 C20.390625,7.80128906 12.6351563,0.045703125 3.10253906,0.045703125 Z" id="路径"></path>
                </g>
                <circle id="椭圆形" fill="#FFFFFF" cx="27.4576172" cy="32.5880859" r="2.03390625"></circle>
            </g>
            <path d="M77.25,18.6309375 L71.64,18.6309375 L71.64,24.6909375 L76.47,24.6909375 L76.47,27.7209375 L71.64,27.7209375 L71.64,36.9609375 L68.28,36.9609375 L68.28,15.6009375 L77.25,15.6009375 L77.25,18.6309375 Z M88.32,29.9709375 L81.81,29.9709375 C81.81,32.0109477 81.9699984,33.2609352 82.29,33.7209375 C82.5700014,34.1409396 82.9799973,34.3509375 83.52,34.3509375 C84.0000024,34.3509375 84.3999984,34.1409396 84.72,33.7209375 C84.9800013,33.4009359 85.11,32.9309406 85.11,32.3109375 L88.26,32.3109375 C88.1999997,33.8309451 87.7600041,35.040933 86.94,35.9409375 C86.1799962,36.7809417 85.0400076,37.2009375 83.52,37.2009375 C82.0999929,37.2009375 80.9600043,36.7709418 80.1,35.9109375 C79.4799969,35.2909344 79.0800009,34.430943 78.9,33.3309375 C78.7199991,32.230932 78.63,30.8009463 78.63,29.0409375 C78.63,27.2809287 78.7199991,25.850943 78.9,24.7509375 C79.0800009,23.650932 79.4799969,22.7909406 80.1,22.1709375 C80.9400042,21.3309333 82.0699929,20.9109375 83.49,20.9109375 C84.9700074,20.9109375 86.0999961,21.3309333 86.88,22.1709375 C87.0400008,22.3509384 87.1899993,22.5459364 87.33,22.7559375 C87.4700007,22.9659385 87.5849996,23.2109361 87.675,23.4909375 C87.7650005,23.7709389 87.8449997,24.0159364 87.915,24.2259375 C87.9850004,24.4359385 88.0449998,24.7359355 88.095,25.1259375 C88.1450003,25.5159394 88.1849998,25.8109365 88.215,26.0109375 C88.2450002,26.2109385 88.265,26.5459351 88.275,27.0159375 C88.2850001,27.4859398 88.295,27.8009367 88.305,27.9609375 C88.3150001,28.1209383 88.32,28.4659348 88.32,28.9959375 C88.32,29.5259401 88.32,29.8509369 88.32,29.9709375 Z M85.14,27.6309375 C85.14,25.8309285 84.9900015,24.7409394 84.69,24.3609375 C84.3699984,23.9409354 83.9700024,23.7309375 83.49,23.7309375 C83.0099976,23.7309375 82.6100016,23.9409354 82.29,24.3609375 C81.9699984,24.7609395 81.81,25.8509286 81.81,27.6309375 L85.14,27.6309375 Z M100.14,29.9709375 L93.63,29.9709375 C93.63,32.0109477 93.7899984,33.2609352 94.11,33.7209375 C94.3900014,34.1409396 94.7999973,34.3509375 95.34,34.3509375 C95.8200024,34.3509375 96.2199984,34.1409396 96.54,33.7209375 C96.8000013,33.4009359 96.93,32.9309406 96.93,32.3109375 L100.08,32.3109375 C100.02,33.8309451 99.5800041,35.040933 98.76,35.9409375 C97.9999962,36.7809417 96.8600076,37.2009375 95.34,37.2009375 C93.9199929,37.2009375 92.7800043,36.7709418 91.92,35.9109375 C91.2999969,35.2909344 90.9000009,34.430943 90.72,33.3309375 C90.5399991,32.230932 90.45,30.8009463 90.45,29.0409375 C90.45,27.2809287 90.5399991,25.850943 90.72,24.7509375 C90.9000009,23.650932 91.2999969,22.7909406 91.92,22.1709375 C92.7600042,21.3309333 93.8899929,20.9109375 95.31,20.9109375 C96.7900074,20.9109375 97.9199961,21.3309333 98.7,22.1709375 C98.8600008,22.3509384 99.0099993,22.5459364 99.15,22.7559375 C99.2900007,22.9659385 99.4049996,23.2109361 99.495,23.4909375 C99.5850004,23.7709389 99.6649996,24.0159364 99.735,24.2259375 C99.8050004,24.4359385 99.8649998,24.7359355 99.915,25.1259375 C99.9650003,25.5159394 100.005,25.8109365 100.035,26.0109375 C100.065,26.2109385 100.085,26.5459351 100.095,27.0159375 C100.105,27.4859398 100.115,27.8009367 100.125,27.9609375 C100.135,28.1209383 100.14,28.4659348 100.14,28.9959375 C100.14,29.5259401 100.14,29.8509369 100.14,29.9709375 Z M96.96,27.6309375 C96.96,25.8309285 96.8100015,24.7409394 96.51,24.3609375 C96.1899984,23.9409354 95.7900024,23.7309375 95.31,23.7309375 C94.8299976,23.7309375 94.4300016,23.9409354 94.11,24.3609375 C93.7899984,24.7609395 93.63,25.8509286 93.63,27.6309375 L96.96,27.6309375 Z M111.87,36.9609375 L108.81,36.9609375 L108.81,35.7609375 C108.71,35.9209383 108.550001,36.1059365 108.33,36.3159375 C108.109999,36.5259385 107.920001,36.6709371 107.76,36.7509375 C107.259997,37.050939 106.730003,37.2009375 106.17,37.2009375 C104.969994,37.2009375 104.040003,36.7909416 103.38,35.9709375 C102.899998,35.3709345 102.595001,34.5659426 102.465,33.5559375 C102.334999,32.5459324 102.27,31.0409475 102.27,29.0409375 C102.27,27.0409275 102.334999,25.5409425 102.465,24.5409375 C102.595001,23.5409325 102.899998,22.7409405 103.38,22.1409375 C104.060003,21.3209334 104.989994,20.9109375 106.17,20.9109375 C106.770003,20.9109375 107.299998,21.0509361 107.76,21.3309375 C108.120002,21.5309385 108.429999,21.8109357 108.69,22.1709375 L108.69,15.6009375 L111.87,15.6009375 L111.87,36.9609375 Z M108.69,32.4609375 L108.69,25.6509375 C108.69,24.9909342 108.520002,24.4909392 108.18,24.1509375 C107.899999,23.8709361 107.540002,23.7309375 107.1,23.7309375 C106.579997,23.7309375 106.180001,23.9509353 105.9,24.3909375 C105.599998,24.9109401 105.45,26.4609246 105.45,29.0409375 C105.45,31.6409505 105.599998,33.2009349 105.9,33.7209375 C106.160001,34.1409396 106.559997,34.3509375 107.1,34.3509375 C107.560002,34.3509375 107.919999,34.2209388 108.18,33.9609375 C108.520002,33.6209358 108.69,33.1209408 108.69,32.4609375 Z M125.55,31.0509375 C125.55,33.2909487 125.090005,34.860933 124.17,35.7609375 C123.189995,36.7009422 121.800009,37.1709375 120,37.1709375 C118.179991,37.1709375 116.800005,36.7009422 115.86,35.7609375 C114.939995,34.8409329 114.48,33.3109482 114.48,31.1709375 L117.84,31.1709375 C117.84,32.3109432 118.039998,33.1109352 118.44,33.5709375 C118.780002,33.9509394 119.299997,34.1409375 120,34.1409375 C120.740004,34.1409375 121.279998,33.9409395 121.62,33.5409375 C122.000002,33.1009353 122.19,32.3109432 122.19,31.1709375 C122.19,30.0309318 122.065001,29.2459396 121.815,28.8159375 C121.564999,28.3859353 121.020004,28.0009392 120.18,27.6609375 L117.63,26.6109375 C116.529995,26.1509352 115.760002,25.5459412 115.32,24.7959375 C114.879998,24.0459337 114.66,22.8609456 114.66,21.2409375 C114.66,19.2609276 115.239994,17.7509427 116.4,16.7109375 C117.380005,15.8509332 118.599993,15.4209375 120.06,15.4209375 C121.720008,15.4209375 122.999996,15.8509332 123.9,16.7109375 C124.900005,17.6909424 125.4,19.2409269 125.4,21.3609375 L122.04,21.3609375 C122.04,20.2809321 121.870002,19.5209397 121.53,19.0809375 C121.209998,18.6609354 120.710003,18.4509375 120.03,18.4509375 C119.429997,18.4509375 118.950002,18.6509355 118.59,19.0509375 C118.209998,19.4909397 118.02,20.1909327 118.02,21.1509375 C118.02,22.0309419 118.129999,22.6559356 118.35,23.0259375 C118.570001,23.3959393 119.049996,23.730936 119.79,24.0309375 L122.31,25.0509375 C123.570006,25.5709401 124.424998,26.2509333 124.875,27.0909375 C125.325002,27.9309417 125.55,29.2509285 125.55,31.0509375 Z M134.31,36.9609375 C132.569991,36.9609375 131.290004,36.6409407 130.47,36.0009375 C129.409995,35.1609333 128.88,33.8809461 128.88,32.1609375 L128.88,23.5809375 L127.26,23.5809375 L127.26,21.1509375 L128.88,21.1509375 L128.88,17.1009375 L132.06,17.1009375 L132.06,21.1509375 L134.25,21.1509375 L134.25,23.5809375 L132.06,23.5809375 L132.06,31.9809375 C132.06,33.4009446 132.809993,34.1109375 134.31,34.1109375 L134.31,36.9609375 Z M144.6,22.5609375 C145.340004,23.6009427 145.71,25.7609211 145.71,29.0409375 C145.71,32.3209539 145.340004,34.4809323 144.6,35.5209375 C143.799996,36.6409431 142.550008,37.2009375 140.85,37.2009375 C139.149991,37.2009375 137.900004,36.6409431 137.1,35.5209375 C136.359996,34.4809323 135.99,32.3209539 135.99,29.0409375 C135.99,25.7609211 136.359996,23.6009427 137.1,22.5609375 C137.900004,21.460932 139.149991,20.9109375 140.85,20.9109375 C142.550008,20.9109375 143.799996,21.460932 144.6,22.5609375 Z M142.53,29.0409375 C142.53,26.4609246 142.380001,24.9109401 142.08,24.3909375 C141.799999,23.9509353 141.390003,23.7309375 140.85,23.7309375 C140.309997,23.7309375 139.900001,23.9509353 139.62,24.3909375 C139.319998,24.9109401 139.17,26.4609246 139.17,29.0409375 C139.17,31.6409505 139.319998,33.2009349 139.62,33.7209375 C139.880001,34.1409396 140.289997,34.3509375 140.85,34.3509375 C141.410003,34.3509375 141.819999,34.1409396 142.08,33.7209375 C142.380001,33.2009349 142.53,31.6409505 142.53,29.0409375 Z M155.25,24.0009375 L154.17,24.0009375 C153.409996,24.0009375 152.780002,24.245935 152.28,24.7359375 C151.779997,25.2259399 151.53,25.8909333 151.53,26.7309375 L151.53,36.9609375 L148.35,36.9609375 L148.35,21.1509375 L151.41,21.1509375 L151.41,22.8309375 C151.730002,22.3509351 152.189997,21.9309393 152.79,21.5709375 C153.510004,21.1309353 154.329995,20.9109375 155.25,20.9109375 L155.25,24.0009375 Z M167.37,21.1509375 L162.93,38.9709375 C162.569998,40.4309448 161.915005,41.3859353 160.965,41.8359375 C160.014995,42.2859397 158.700008,42.5109375 157.02,42.5109375 L157.02,39.6909375 C157.580003,39.6709374 158.009998,39.6359377 158.31,39.5859375 C158.610002,39.5359373 158.909999,39.3859387 159.21,39.1359375 C159.510001,38.8859363 159.719999,38.5209399 159.84,38.0409375 L160.11,36.9309375 L156.18,21.1509375 L159.69,21.1509375 L161.79,31.9209375 L163.86,21.1509375 L167.37,21.1509375 Z" id="FeedStory" fill-opacity="0.746203016" fill="#969696"></path>
        </g>
    </g>
</svg>